<mxfile host="Electron" agent="Mozilla/5.0 (Windows NT 10.0; Win64; x64) AppleWebKit/537.36 (KHTML, like Gecko) draw.io/25.0.1 Chrome/128.0.6613.186 Electron/32.2.6 Safari/537.36" version="25.0.1">
  <diagram name="Page-1" id="_Bwh8vocSseDmXTLhzuc">
    <mxGraphModel dx="1122" dy="773" grid="1" gridSize="10" guides="1" tooltips="1" connect="1" arrows="1" fold="1" page="1" pageScale="1" pageWidth="850" pageHeight="1100" math="0" shadow="0">
      <root>
        <mxCell id="0" />
        <mxCell id="1" parent="0" />
        <mxCell id="D_2TPNSe9pJ0Xu-pH0Qq-23" style="edgeStyle=orthogonalEdgeStyle;rounded=0;orthogonalLoop=1;jettySize=auto;html=1;exitX=0;exitY=0.5;exitDx=0;exitDy=0;entryX=1;entryY=0.5;entryDx=0;entryDy=0;endArrow=none;endFill=0;" parent="1" source="D_2TPNSe9pJ0Xu-pH0Qq-1" target="D_2TPNSe9pJ0Xu-pH0Qq-22" edge="1">
          <mxGeometry relative="1" as="geometry" />
        </mxCell>
        <mxCell id="D_2TPNSe9pJ0Xu-pH0Qq-29" style="edgeStyle=orthogonalEdgeStyle;rounded=0;orthogonalLoop=1;jettySize=auto;html=1;entryX=0;entryY=0.5;entryDx=0;entryDy=0;endArrow=none;endFill=0;exitX=1;exitY=0;exitDx=0;exitDy=0;" parent="1" source="D_2TPNSe9pJ0Xu-pH0Qq-1" target="D_2TPNSe9pJ0Xu-pH0Qq-26" edge="1">
          <mxGeometry relative="1" as="geometry">
            <Array as="points">
              <mxPoint x="505" y="350" />
              <mxPoint x="505" y="350" />
            </Array>
          </mxGeometry>
        </mxCell>
        <mxCell id="D_2TPNSe9pJ0Xu-pH0Qq-35" style="edgeStyle=orthogonalEdgeStyle;rounded=0;orthogonalLoop=1;jettySize=auto;html=1;exitX=0;exitY=1;exitDx=0;exitDy=0;entryX=1;entryY=0.5;entryDx=0;entryDy=0;endArrow=none;endFill=0;" parent="1" source="D_2TPNSe9pJ0Xu-pH0Qq-1" target="D_2TPNSe9pJ0Xu-pH0Qq-34" edge="1">
          <mxGeometry relative="1" as="geometry" />
        </mxCell>
        <mxCell id="D_2TPNSe9pJ0Xu-pH0Qq-49" style="edgeStyle=orthogonalEdgeStyle;rounded=0;orthogonalLoop=1;jettySize=auto;html=1;exitX=1;exitY=1;exitDx=0;exitDy=0;entryX=0;entryY=0.5;entryDx=0;entryDy=0;endArrow=none;endFill=0;" parent="1" source="D_2TPNSe9pJ0Xu-pH0Qq-1" target="D_2TPNSe9pJ0Xu-pH0Qq-47" edge="1">
          <mxGeometry relative="1" as="geometry" />
        </mxCell>
        <mxCell id="D_2TPNSe9pJ0Xu-pH0Qq-1" value="Patients" style="whiteSpace=wrap;html=1;align=center;" parent="1" vertex="1">
          <mxGeometry x="385" y="350" width="100" height="40" as="geometry" />
        </mxCell>
        <mxCell id="D_2TPNSe9pJ0Xu-pH0Qq-17" style="edgeStyle=orthogonalEdgeStyle;rounded=0;orthogonalLoop=1;jettySize=auto;html=1;entryX=1;entryY=0.5;entryDx=0;entryDy=0;endArrow=none;endFill=0;" parent="1" source="D_2TPNSe9pJ0Xu-pH0Qq-2" target="D_2TPNSe9pJ0Xu-pH0Qq-12" edge="1">
          <mxGeometry relative="1" as="geometry" />
        </mxCell>
        <mxCell id="D_2TPNSe9pJ0Xu-pH0Qq-2" value="Emergency cases" style="whiteSpace=wrap;html=1;align=center;" parent="1" vertex="1">
          <mxGeometry x="625" y="230" width="100" height="40" as="geometry" />
        </mxCell>
        <mxCell id="D_2TPNSe9pJ0Xu-pH0Qq-10" style="edgeStyle=orthogonalEdgeStyle;rounded=0;orthogonalLoop=1;jettySize=auto;html=1;entryX=0;entryY=0.5;entryDx=0;entryDy=0;endArrow=none;endFill=0;" parent="1" source="D_2TPNSe9pJ0Xu-pH0Qq-4" target="D_2TPNSe9pJ0Xu-pH0Qq-9" edge="1">
          <mxGeometry relative="1" as="geometry" />
        </mxCell>
        <mxCell id="D_2TPNSe9pJ0Xu-pH0Qq-4" value="wearable health devices" style="whiteSpace=wrap;html=1;align=center;" parent="1" vertex="1">
          <mxGeometry x="155" y="230" width="100" height="40" as="geometry" />
        </mxCell>
        <mxCell id="D_2TPNSe9pJ0Xu-pH0Qq-9" value="Tracks" style="shape=rhombus;perimeter=rhombusPerimeter;whiteSpace=wrap;html=1;align=center;" parent="1" vertex="1">
          <mxGeometry x="270" y="220" width="120" height="60" as="geometry" />
        </mxCell>
        <mxCell id="D_2TPNSe9pJ0Xu-pH0Qq-14" style="edgeStyle=orthogonalEdgeStyle;rounded=0;orthogonalLoop=1;jettySize=auto;html=1;entryX=1;entryY=0;entryDx=0;entryDy=0;endArrow=none;endFill=0;" parent="1" source="D_2TPNSe9pJ0Xu-pH0Qq-12" target="D_2TPNSe9pJ0Xu-pH0Qq-1" edge="1">
          <mxGeometry relative="1" as="geometry" />
        </mxCell>
        <mxCell id="D_2TPNSe9pJ0Xu-pH0Qq-12" value="Prioritizes" style="shape=rhombus;perimeter=rhombusPerimeter;whiteSpace=wrap;html=1;align=center;" parent="1" vertex="1">
          <mxGeometry x="480" y="220" width="120" height="60" as="geometry" />
        </mxCell>
        <mxCell id="D_2TPNSe9pJ0Xu-pH0Qq-15" style="edgeStyle=orthogonalEdgeStyle;rounded=0;orthogonalLoop=1;jettySize=auto;html=1;entryX=0;entryY=0;entryDx=0;entryDy=0;endArrow=none;endFill=0;" parent="1" source="D_2TPNSe9pJ0Xu-pH0Qq-9" target="D_2TPNSe9pJ0Xu-pH0Qq-1" edge="1">
          <mxGeometry relative="1" as="geometry" />
        </mxCell>
        <mxCell id="D_2TPNSe9pJ0Xu-pH0Qq-25" style="edgeStyle=orthogonalEdgeStyle;rounded=0;orthogonalLoop=1;jettySize=auto;html=1;entryX=1;entryY=0.5;entryDx=0;entryDy=0;endArrow=none;endFill=0;" parent="1" source="D_2TPNSe9pJ0Xu-pH0Qq-22" target="D_2TPNSe9pJ0Xu-pH0Qq-24" edge="1">
          <mxGeometry relative="1" as="geometry" />
        </mxCell>
        <mxCell id="D_2TPNSe9pJ0Xu-pH0Qq-22" value="books" style="shape=rhombus;perimeter=rhombusPerimeter;whiteSpace=wrap;html=1;align=center;" parent="1" vertex="1">
          <mxGeometry x="240" y="340" width="120" height="60" as="geometry" />
        </mxCell>
        <mxCell id="D_2TPNSe9pJ0Xu-pH0Qq-24" value="Appointment" style="whiteSpace=wrap;html=1;align=center;" parent="1" vertex="1">
          <mxGeometry x="70" y="350" width="100" height="40" as="geometry" />
        </mxCell>
        <mxCell id="D_2TPNSe9pJ0Xu-pH0Qq-28" style="edgeStyle=orthogonalEdgeStyle;rounded=0;orthogonalLoop=1;jettySize=auto;html=1;entryX=0;entryY=0.5;entryDx=0;entryDy=0;endArrow=none;endFill=0;" parent="1" source="D_2TPNSe9pJ0Xu-pH0Qq-26" target="D_2TPNSe9pJ0Xu-pH0Qq-27" edge="1">
          <mxGeometry relative="1" as="geometry" />
        </mxCell>
        <mxCell id="D_2TPNSe9pJ0Xu-pH0Qq-26" value="assigned_to" style="shape=rhombus;perimeter=rhombusPerimeter;whiteSpace=wrap;html=1;align=center;" parent="1" vertex="1">
          <mxGeometry x="545" y="320" width="120" height="60" as="geometry" />
        </mxCell>
        <mxCell id="D_2TPNSe9pJ0Xu-pH0Qq-27" value="Room and beds" style="whiteSpace=wrap;html=1;align=center;" parent="1" vertex="1">
          <mxGeometry x="715" y="330" width="100" height="40" as="geometry" />
        </mxCell>
        <mxCell id="D_2TPNSe9pJ0Xu-pH0Qq-32" style="edgeStyle=orthogonalEdgeStyle;rounded=0;orthogonalLoop=1;jettySize=auto;html=1;entryX=0.5;entryY=1;entryDx=0;entryDy=0;endArrow=none;endFill=0;" parent="1" source="D_2TPNSe9pJ0Xu-pH0Qq-30" target="D_2TPNSe9pJ0Xu-pH0Qq-24" edge="1">
          <mxGeometry relative="1" as="geometry">
            <Array as="points">
              <mxPoint x="130" y="390" />
            </Array>
          </mxGeometry>
        </mxCell>
        <mxCell id="D_2TPNSe9pJ0Xu-pH0Qq-30" value="generates" style="shape=rhombus;perimeter=rhombusPerimeter;whiteSpace=wrap;html=1;align=center;" parent="1" vertex="1">
          <mxGeometry x="70" y="440" width="120" height="60" as="geometry" />
        </mxCell>
        <mxCell id="D_2TPNSe9pJ0Xu-pH0Qq-33" style="edgeStyle=orthogonalEdgeStyle;rounded=0;orthogonalLoop=1;jettySize=auto;html=1;entryX=0.5;entryY=1;entryDx=0;entryDy=0;endArrow=none;endFill=0;" parent="1" source="D_2TPNSe9pJ0Xu-pH0Qq-31" target="D_2TPNSe9pJ0Xu-pH0Qq-30" edge="1">
          <mxGeometry relative="1" as="geometry" />
        </mxCell>
        <mxCell id="D_2TPNSe9pJ0Xu-pH0Qq-36" style="edgeStyle=orthogonalEdgeStyle;rounded=0;orthogonalLoop=1;jettySize=auto;html=1;entryX=0;entryY=0.5;entryDx=0;entryDy=0;endArrow=none;endFill=0;" parent="1" source="D_2TPNSe9pJ0Xu-pH0Qq-31" target="D_2TPNSe9pJ0Xu-pH0Qq-34" edge="1">
          <mxGeometry relative="1" as="geometry" />
        </mxCell>
        <mxCell id="D_2TPNSe9pJ0Xu-pH0Qq-93" style="edgeStyle=orthogonalEdgeStyle;rounded=0;orthogonalLoop=1;jettySize=auto;html=1;entryX=0;entryY=0.5;entryDx=0;entryDy=0;endArrow=none;endFill=0;" parent="1" source="D_2TPNSe9pJ0Xu-pH0Qq-31" target="D_2TPNSe9pJ0Xu-pH0Qq-92" edge="1">
          <mxGeometry relative="1" as="geometry">
            <Array as="points">
              <mxPoint x="25" y="570" />
              <mxPoint x="25" y="800" />
            </Array>
          </mxGeometry>
        </mxCell>
        <mxCell id="D_2TPNSe9pJ0Xu-pH0Qq-31" value="Medical records" style="rounded=1;arcSize=10;whiteSpace=wrap;html=1;align=center;" parent="1" vertex="1">
          <mxGeometry x="55" y="550" width="100" height="40" as="geometry" />
        </mxCell>
        <mxCell id="D_2TPNSe9pJ0Xu-pH0Qq-34" value="has" style="shape=rhombus;perimeter=rhombusPerimeter;whiteSpace=wrap;html=1;align=center;" parent="1" vertex="1">
          <mxGeometry x="240" y="440" width="120" height="60" as="geometry" />
        </mxCell>
        <mxCell id="D_2TPNSe9pJ0Xu-pH0Qq-46" style="edgeStyle=orthogonalEdgeStyle;rounded=0;orthogonalLoop=1;jettySize=auto;html=1;entryX=0.5;entryY=1;entryDx=0;entryDy=0;endArrow=none;endFill=0;" parent="1" source="D_2TPNSe9pJ0Xu-pH0Qq-37" target="D_2TPNSe9pJ0Xu-pH0Qq-38" edge="1">
          <mxGeometry relative="1" as="geometry" />
        </mxCell>
        <mxCell id="D_2TPNSe9pJ0Xu-pH0Qq-107" style="edgeStyle=orthogonalEdgeStyle;rounded=0;orthogonalLoop=1;jettySize=auto;html=1;exitX=0.5;exitY=1;exitDx=0;exitDy=0;entryX=0.5;entryY=0;entryDx=0;entryDy=0;endArrow=none;endFill=0;" parent="1" source="D_2TPNSe9pJ0Xu-pH0Qq-37" target="D_2TPNSe9pJ0Xu-pH0Qq-106" edge="1">
          <mxGeometry relative="1" as="geometry" />
        </mxCell>
        <mxCell id="W1MvwOD-hxLA4omaz6n4-51" style="edgeStyle=orthogonalEdgeStyle;rounded=0;orthogonalLoop=1;jettySize=auto;html=1;entryX=0;entryY=1;entryDx=0;entryDy=0;endArrow=none;endFill=0;" parent="1" source="D_2TPNSe9pJ0Xu-pH0Qq-37" target="W1MvwOD-hxLA4omaz6n4-50" edge="1">
          <mxGeometry relative="1" as="geometry">
            <Array as="points">
              <mxPoint x="480" y="520" />
              <mxPoint x="525" y="520" />
            </Array>
          </mxGeometry>
        </mxCell>
        <mxCell id="D_2TPNSe9pJ0Xu-pH0Qq-37" value="Doctor" style="whiteSpace=wrap;html=1;align=center;" parent="1" vertex="1">
          <mxGeometry x="390" y="550" width="100" height="40" as="geometry" />
        </mxCell>
        <mxCell id="D_2TPNSe9pJ0Xu-pH0Qq-39" style="edgeStyle=orthogonalEdgeStyle;rounded=0;orthogonalLoop=1;jettySize=auto;html=1;exitX=0;exitY=0.5;exitDx=0;exitDy=0;entryX=0.899;entryY=0.996;entryDx=0;entryDy=0;entryPerimeter=0;endArrow=none;endFill=0;" parent="1" source="D_2TPNSe9pJ0Xu-pH0Qq-38" target="D_2TPNSe9pJ0Xu-pH0Qq-24" edge="1">
          <mxGeometry relative="1" as="geometry">
            <mxPoint x="145" y="400" as="targetPoint" />
            <Array as="points">
              <mxPoint x="365" y="490" />
              <mxPoint x="365" y="430" />
              <mxPoint x="145" y="430" />
              <mxPoint x="145" y="392" />
              <mxPoint x="145" y="392" />
            </Array>
          </mxGeometry>
        </mxCell>
        <mxCell id="D_2TPNSe9pJ0Xu-pH0Qq-38" value="conducts" style="shape=rhombus;perimeter=rhombusPerimeter;whiteSpace=wrap;html=1;align=center;" parent="1" vertex="1">
          <mxGeometry x="380" y="460" width="120" height="60" as="geometry" />
        </mxCell>
        <mxCell id="D_2TPNSe9pJ0Xu-pH0Qq-50" style="edgeStyle=orthogonalEdgeStyle;rounded=0;orthogonalLoop=1;jettySize=auto;html=1;exitX=0.5;exitY=1;exitDx=0;exitDy=0;endArrow=none;endFill=0;" parent="1" source="D_2TPNSe9pJ0Xu-pH0Qq-47" target="D_2TPNSe9pJ0Xu-pH0Qq-48" edge="1">
          <mxGeometry relative="1" as="geometry">
            <Array as="points">
              <mxPoint x="645" y="520" />
              <mxPoint x="645" y="520" />
            </Array>
          </mxGeometry>
        </mxCell>
        <mxCell id="D_2TPNSe9pJ0Xu-pH0Qq-47" value="undergo" style="shape=rhombus;perimeter=rhombusPerimeter;whiteSpace=wrap;html=1;align=center;" parent="1" vertex="1">
          <mxGeometry x="600" y="430" width="90" height="60" as="geometry" />
        </mxCell>
        <mxCell id="D_2TPNSe9pJ0Xu-pH0Qq-53" value="" style="edgeStyle=orthogonalEdgeStyle;rounded=0;orthogonalLoop=1;jettySize=auto;html=1;endArrow=none;endFill=0;" parent="1" source="D_2TPNSe9pJ0Xu-pH0Qq-48" target="D_2TPNSe9pJ0Xu-pH0Qq-51" edge="1">
          <mxGeometry relative="1" as="geometry" />
        </mxCell>
        <mxCell id="D_2TPNSe9pJ0Xu-pH0Qq-48" value="Lab_Tests" style="whiteSpace=wrap;html=1;align=center;" parent="1" vertex="1">
          <mxGeometry x="640" y="550" width="80" height="40" as="geometry" />
        </mxCell>
        <mxCell id="D_2TPNSe9pJ0Xu-pH0Qq-52" value="" style="edgeStyle=orthogonalEdgeStyle;rounded=0;orthogonalLoop=1;jettySize=auto;html=1;endArrow=none;endFill=0;" parent="1" source="D_2TPNSe9pJ0Xu-pH0Qq-51" target="D_2TPNSe9pJ0Xu-pH0Qq-37" edge="1">
          <mxGeometry relative="1" as="geometry" />
        </mxCell>
        <mxCell id="D_2TPNSe9pJ0Xu-pH0Qq-51" value="orders" style="shape=rhombus;perimeter=rhombusPerimeter;whiteSpace=wrap;html=1;align=center;" parent="1" vertex="1">
          <mxGeometry x="510" y="540" width="90" height="60" as="geometry" />
        </mxCell>
        <mxCell id="D_2TPNSe9pJ0Xu-pH0Qq-57" style="edgeStyle=orthogonalEdgeStyle;rounded=0;orthogonalLoop=1;jettySize=auto;html=1;entryX=1;entryY=0.5;entryDx=0;entryDy=0;endArrow=none;endFill=0;exitX=1;exitY=0.5;exitDx=0;exitDy=0;" parent="1" source="D_2TPNSe9pJ0Xu-pH0Qq-56" target="D_2TPNSe9pJ0Xu-pH0Qq-1" edge="1">
          <mxGeometry relative="1" as="geometry">
            <Array as="points">
              <mxPoint x="310" y="740" />
              <mxPoint x="310" y="630" />
              <mxPoint x="840" y="630" />
              <mxPoint x="840" y="410" />
              <mxPoint x="505" y="410" />
              <mxPoint x="505" y="370" />
            </Array>
          </mxGeometry>
        </mxCell>
        <mxCell id="D_2TPNSe9pJ0Xu-pH0Qq-59" style="edgeStyle=orthogonalEdgeStyle;rounded=0;orthogonalLoop=1;jettySize=auto;html=1;entryX=1;entryY=0.5;entryDx=0;entryDy=0;endArrow=none;endFill=0;" parent="1" source="D_2TPNSe9pJ0Xu-pH0Qq-56" target="D_2TPNSe9pJ0Xu-pH0Qq-58" edge="1">
          <mxGeometry relative="1" as="geometry" />
        </mxCell>
        <mxCell id="D_2TPNSe9pJ0Xu-pH0Qq-56" value="recieves" style="shape=rhombus;perimeter=rhombusPerimeter;whiteSpace=wrap;html=1;align=center;" parent="1" vertex="1">
          <mxGeometry x="205" y="710" width="85" height="60" as="geometry" />
        </mxCell>
        <mxCell id="D_2TPNSe9pJ0Xu-pH0Qq-97" style="edgeStyle=orthogonalEdgeStyle;rounded=0;orthogonalLoop=1;jettySize=auto;html=1;exitX=1;exitY=1;exitDx=0;exitDy=0;entryX=0;entryY=0.5;entryDx=0;entryDy=0;endArrow=none;endFill=0;" parent="1" source="D_2TPNSe9pJ0Xu-pH0Qq-58" target="D_2TPNSe9pJ0Xu-pH0Qq-96" edge="1">
          <mxGeometry relative="1" as="geometry">
            <Array as="points">
              <mxPoint x="185" y="760" />
              <mxPoint x="185" y="800" />
            </Array>
          </mxGeometry>
        </mxCell>
        <mxCell id="D_2TPNSe9pJ0Xu-pH0Qq-101" style="edgeStyle=orthogonalEdgeStyle;rounded=0;orthogonalLoop=1;jettySize=auto;html=1;entryX=0;entryY=0.5;entryDx=0;entryDy=0;endArrow=none;endFill=0;exitX=0;exitY=1;exitDx=0;exitDy=0;" parent="1" source="D_2TPNSe9pJ0Xu-pH0Qq-58" target="D_2TPNSe9pJ0Xu-pH0Qq-98" edge="1">
          <mxGeometry relative="1" as="geometry">
            <mxPoint x="45" y="370" as="targetPoint" />
            <Array as="points">
              <mxPoint x="45" y="430" />
            </Array>
          </mxGeometry>
        </mxCell>
        <mxCell id="D_2TPNSe9pJ0Xu-pH0Qq-58" value="Billings" style="whiteSpace=wrap;html=1;align=center;" parent="1" vertex="1">
          <mxGeometry x="45" y="720" width="100" height="40" as="geometry" />
        </mxCell>
        <mxCell id="D_2TPNSe9pJ0Xu-pH0Qq-62" style="edgeStyle=orthogonalEdgeStyle;rounded=0;orthogonalLoop=1;jettySize=auto;html=1;entryX=0;entryY=1;entryDx=0;entryDy=0;endArrow=none;endFill=0;exitX=1;exitY=0.5;exitDx=0;exitDy=0;" parent="1" source="D_2TPNSe9pJ0Xu-pH0Qq-60" target="D_2TPNSe9pJ0Xu-pH0Qq-48" edge="1">
          <mxGeometry relative="1" as="geometry">
            <Array as="points">
              <mxPoint x="300" y="610" />
              <mxPoint x="715" y="610" />
              <mxPoint x="715" y="590" />
            </Array>
          </mxGeometry>
        </mxCell>
        <mxCell id="W1MvwOD-hxLA4omaz6n4-42" style="edgeStyle=orthogonalEdgeStyle;rounded=0;orthogonalLoop=1;jettySize=auto;html=1;entryX=1;entryY=0.25;entryDx=0;entryDy=0;endArrow=none;endFill=0;" parent="1" source="D_2TPNSe9pJ0Xu-pH0Qq-60" target="D_2TPNSe9pJ0Xu-pH0Qq-58" edge="1">
          <mxGeometry relative="1" as="geometry" />
        </mxCell>
        <mxCell id="D_2TPNSe9pJ0Xu-pH0Qq-60" value="includes" style="shape=rhombus;perimeter=rhombusPerimeter;whiteSpace=wrap;html=1;align=center;" parent="1" vertex="1">
          <mxGeometry x="205" y="640" width="95" height="60" as="geometry" />
        </mxCell>
        <mxCell id="D_2TPNSe9pJ0Xu-pH0Qq-92" value="analyzes" style="shape=rhombus;perimeter=rhombusPerimeter;whiteSpace=wrap;html=1;align=center;" parent="1" vertex="1">
          <mxGeometry x="45" y="770" width="120" height="60" as="geometry" />
        </mxCell>
        <mxCell id="D_2TPNSe9pJ0Xu-pH0Qq-95" style="edgeStyle=orthogonalEdgeStyle;rounded=0;orthogonalLoop=1;jettySize=auto;html=1;exitX=0.5;exitY=0;exitDx=0;exitDy=0;entryX=0.5;entryY=1;entryDx=0;entryDy=0;endArrow=none;endFill=0;" parent="1" source="D_2TPNSe9pJ0Xu-pH0Qq-94" target="D_2TPNSe9pJ0Xu-pH0Qq-92" edge="1">
          <mxGeometry relative="1" as="geometry" />
        </mxCell>
        <mxCell id="D_2TPNSe9pJ0Xu-pH0Qq-94" value="AI_Predictions" style="whiteSpace=wrap;html=1;align=center;" parent="1" vertex="1">
          <mxGeometry x="55" y="880" width="100" height="40" as="geometry" />
        </mxCell>
        <mxCell id="D_2TPNSe9pJ0Xu-pH0Qq-103" value="" style="edgeStyle=orthogonalEdgeStyle;rounded=0;orthogonalLoop=1;jettySize=auto;html=1;endArrow=none;endFill=0;" parent="1" source="D_2TPNSe9pJ0Xu-pH0Qq-96" target="D_2TPNSe9pJ0Xu-pH0Qq-102" edge="1">
          <mxGeometry relative="1" as="geometry">
            <Array as="points">
              <mxPoint x="275" y="870" />
              <mxPoint x="275" y="870" />
            </Array>
          </mxGeometry>
        </mxCell>
        <mxCell id="D_2TPNSe9pJ0Xu-pH0Qq-96" value="includes" style="shape=rhombus;perimeter=rhombusPerimeter;whiteSpace=wrap;html=1;align=center;" parent="1" vertex="1">
          <mxGeometry x="215" y="770" width="120" height="60" as="geometry" />
        </mxCell>
        <mxCell id="W1MvwOD-hxLA4omaz6n4-53" style="edgeStyle=orthogonalEdgeStyle;rounded=0;orthogonalLoop=1;jettySize=auto;html=1;entryX=0;entryY=1;entryDx=0;entryDy=0;endArrow=none;endFill=0;" parent="1" source="D_2TPNSe9pJ0Xu-pH0Qq-98" target="D_2TPNSe9pJ0Xu-pH0Qq-24" edge="1">
          <mxGeometry relative="1" as="geometry" />
        </mxCell>
        <mxCell id="D_2TPNSe9pJ0Xu-pH0Qq-98" value="related to" style="shape=rhombus;perimeter=rhombusPerimeter;whiteSpace=wrap;html=1;align=center;" parent="1" vertex="1">
          <mxGeometry y="400" width="120" height="60" as="geometry" />
        </mxCell>
        <mxCell id="W1MvwOD-hxLA4omaz6n4-82" style="edgeStyle=orthogonalEdgeStyle;rounded=0;orthogonalLoop=1;jettySize=auto;html=1;entryX=0.5;entryY=0;entryDx=0;entryDy=0;endArrow=none;endFill=0;exitX=1;exitY=1;exitDx=0;exitDy=0;" parent="1" source="D_2TPNSe9pJ0Xu-pH0Qq-102" target="W1MvwOD-hxLA4omaz6n4-81" edge="1">
          <mxGeometry relative="1" as="geometry">
            <Array as="points">
              <mxPoint x="330" y="920" />
            </Array>
          </mxGeometry>
        </mxCell>
        <mxCell id="D_2TPNSe9pJ0Xu-pH0Qq-102" value="Medications" style="whiteSpace=wrap;html=1;align=center;" parent="1" vertex="1">
          <mxGeometry x="215" y="880" width="100" height="40" as="geometry" />
        </mxCell>
        <mxCell id="D_2TPNSe9pJ0Xu-pH0Qq-106" value="belongs to" style="shape=rhombus;perimeter=rhombusPerimeter;whiteSpace=wrap;html=1;align=center;" parent="1" vertex="1">
          <mxGeometry x="400" y="660" width="80" height="60" as="geometry" />
        </mxCell>
        <mxCell id="D_2TPNSe9pJ0Xu-pH0Qq-109" style="edgeStyle=orthogonalEdgeStyle;rounded=0;orthogonalLoop=1;jettySize=auto;html=1;entryX=0.5;entryY=1;entryDx=0;entryDy=0;endArrow=none;endFill=0;" parent="1" source="D_2TPNSe9pJ0Xu-pH0Qq-108" target="D_2TPNSe9pJ0Xu-pH0Qq-106" edge="1">
          <mxGeometry relative="1" as="geometry" />
        </mxCell>
        <mxCell id="D_2TPNSe9pJ0Xu-pH0Qq-112" style="edgeStyle=orthogonalEdgeStyle;rounded=0;orthogonalLoop=1;jettySize=auto;html=1;exitX=0.75;exitY=0;exitDx=0;exitDy=0;entryX=0;entryY=0.5;entryDx=0;entryDy=0;endArrow=none;endFill=0;" parent="1" source="D_2TPNSe9pJ0Xu-pH0Qq-108" target="D_2TPNSe9pJ0Xu-pH0Qq-110" edge="1">
          <mxGeometry relative="1" as="geometry">
            <Array as="points">
              <mxPoint x="470" y="720" />
              <mxPoint x="545" y="720" />
            </Array>
          </mxGeometry>
        </mxCell>
        <mxCell id="W1MvwOD-hxLA4omaz6n4-5" style="edgeStyle=orthogonalEdgeStyle;rounded=0;orthogonalLoop=1;jettySize=auto;html=1;exitX=0.5;exitY=1;exitDx=0;exitDy=0;endArrow=none;endFill=0;" parent="1" source="D_2TPNSe9pJ0Xu-pH0Qq-108" target="D_2TPNSe9pJ0Xu-pH0Qq-116" edge="1">
          <mxGeometry relative="1" as="geometry" />
        </mxCell>
        <mxCell id="D_2TPNSe9pJ0Xu-pH0Qq-108" value="Hospital_Department" style="whiteSpace=wrap;html=1;align=center;" parent="1" vertex="1">
          <mxGeometry x="380" y="760" width="120" height="40" as="geometry" />
        </mxCell>
        <mxCell id="D_2TPNSe9pJ0Xu-pH0Qq-113" style="edgeStyle=orthogonalEdgeStyle;rounded=0;orthogonalLoop=1;jettySize=auto;html=1;entryX=0;entryY=0.5;entryDx=0;entryDy=0;endArrow=none;endFill=0;" parent="1" source="D_2TPNSe9pJ0Xu-pH0Qq-110" target="D_2TPNSe9pJ0Xu-pH0Qq-111" edge="1">
          <mxGeometry relative="1" as="geometry" />
        </mxCell>
        <mxCell id="D_2TPNSe9pJ0Xu-pH0Qq-110" value="assigned to" style="shape=rhombus;perimeter=rhombusPerimeter;whiteSpace=wrap;html=1;align=center;" parent="1" vertex="1">
          <mxGeometry x="502.5" y="690" width="75" height="60" as="geometry" />
        </mxCell>
        <mxCell id="D_2TPNSe9pJ0Xu-pH0Qq-111" value="staff" style="whiteSpace=wrap;html=1;align=center;" parent="1" vertex="1">
          <mxGeometry x="600" y="700" width="70" height="40" as="geometry" />
        </mxCell>
        <mxCell id="W1MvwOD-hxLA4omaz6n4-2" style="edgeStyle=orthogonalEdgeStyle;rounded=0;orthogonalLoop=1;jettySize=auto;html=1;endArrow=none;endFill=0;" parent="1" source="D_2TPNSe9pJ0Xu-pH0Qq-116" target="W1MvwOD-hxLA4omaz6n4-1" edge="1">
          <mxGeometry relative="1" as="geometry" />
        </mxCell>
        <mxCell id="D_2TPNSe9pJ0Xu-pH0Qq-116" value="tracks" style="shape=rhombus;perimeter=rhombusPerimeter;whiteSpace=wrap;html=1;align=center;" parent="1" vertex="1">
          <mxGeometry x="380" y="940" width="120" height="60" as="geometry" />
        </mxCell>
        <mxCell id="W1MvwOD-hxLA4omaz6n4-11" style="edgeStyle=orthogonalEdgeStyle;rounded=0;orthogonalLoop=1;jettySize=auto;html=1;exitX=1;exitY=0.5;exitDx=0;exitDy=0;entryX=0;entryY=0.5;entryDx=0;entryDy=0;endArrow=none;endFill=0;" parent="1" source="W1MvwOD-hxLA4omaz6n4-1" target="W1MvwOD-hxLA4omaz6n4-6" edge="1">
          <mxGeometry relative="1" as="geometry" />
        </mxCell>
        <mxCell id="W1MvwOD-hxLA4omaz6n4-1" value="Energy Consumption" style="whiteSpace=wrap;html=1;align=center;" parent="1" vertex="1">
          <mxGeometry x="390" y="1010" width="100" height="40" as="geometry" />
        </mxCell>
        <mxCell id="W1MvwOD-hxLA4omaz6n4-8" style="edgeStyle=orthogonalEdgeStyle;rounded=0;orthogonalLoop=1;jettySize=auto;html=1;entryX=0.5;entryY=1;entryDx=0;entryDy=0;endArrow=none;endFill=0;" parent="1" source="W1MvwOD-hxLA4omaz6n4-3" target="D_2TPNSe9pJ0Xu-pH0Qq-111" edge="1">
          <mxGeometry relative="1" as="geometry">
            <Array as="points">
              <mxPoint x="680" y="740" />
              <mxPoint x="680" y="740" />
            </Array>
          </mxGeometry>
        </mxCell>
        <mxCell id="W1MvwOD-hxLA4omaz6n4-3" value="manages" style="shape=rhombus;perimeter=rhombusPerimeter;whiteSpace=wrap;html=1;align=center;" parent="1" vertex="1">
          <mxGeometry x="705" y="740" width="65" height="60" as="geometry" />
        </mxCell>
        <mxCell id="W1MvwOD-hxLA4omaz6n4-10" style="edgeStyle=orthogonalEdgeStyle;rounded=0;orthogonalLoop=1;jettySize=auto;html=1;entryX=0;entryY=0.5;entryDx=0;entryDy=0;endArrow=none;endFill=0;" parent="1" source="W1MvwOD-hxLA4omaz6n4-6" target="W1MvwOD-hxLA4omaz6n4-7" edge="1">
          <mxGeometry relative="1" as="geometry" />
        </mxCell>
        <mxCell id="W1MvwOD-hxLA4omaz6n4-6" value="monitors" style="shape=rhombus;perimeter=rhombusPerimeter;whiteSpace=wrap;html=1;align=center;" parent="1" vertex="1">
          <mxGeometry x="545" y="840" width="120" height="60" as="geometry" />
        </mxCell>
        <mxCell id="W1MvwOD-hxLA4omaz6n4-9" style="edgeStyle=orthogonalEdgeStyle;rounded=0;orthogonalLoop=1;jettySize=auto;html=1;exitX=0.5;exitY=0;exitDx=0;exitDy=0;entryX=0.5;entryY=1;entryDx=0;entryDy=0;endArrow=none;endFill=0;" parent="1" source="W1MvwOD-hxLA4omaz6n4-7" target="W1MvwOD-hxLA4omaz6n4-3" edge="1">
          <mxGeometry relative="1" as="geometry">
            <Array as="points">
              <mxPoint x="738" y="830" />
              <mxPoint x="738" y="810" />
              <mxPoint x="738" y="810" />
            </Array>
          </mxGeometry>
        </mxCell>
        <mxCell id="W1MvwOD-hxLA4omaz6n4-7" value="Equipment" style="whiteSpace=wrap;html=1;align=center;" parent="1" vertex="1">
          <mxGeometry x="715" y="830" width="100" height="40" as="geometry" />
        </mxCell>
        <mxCell id="W1MvwOD-hxLA4omaz6n4-13" style="edgeStyle=orthogonalEdgeStyle;rounded=0;orthogonalLoop=1;jettySize=auto;html=1;endArrow=none;endFill=0;" parent="1" source="W1MvwOD-hxLA4omaz6n4-12" target="D_2TPNSe9pJ0Xu-pH0Qq-108" edge="1">
          <mxGeometry relative="1" as="geometry" />
        </mxCell>
        <mxCell id="W1MvwOD-hxLA4omaz6n4-14" style="edgeStyle=orthogonalEdgeStyle;rounded=0;orthogonalLoop=1;jettySize=auto;html=1;entryX=0;entryY=0.25;entryDx=0;entryDy=0;endArrow=none;endFill=0;" parent="1" source="W1MvwOD-hxLA4omaz6n4-12" target="W1MvwOD-hxLA4omaz6n4-7" edge="1">
          <mxGeometry relative="1" as="geometry" />
        </mxCell>
        <mxCell id="W1MvwOD-hxLA4omaz6n4-12" value="located-in" style="shape=rhombus;perimeter=rhombusPerimeter;whiteSpace=wrap;html=1;align=center;" parent="1" vertex="1">
          <mxGeometry x="545" y="750" width="120" height="60" as="geometry" />
        </mxCell>
        <mxCell id="W1MvwOD-hxLA4omaz6n4-17" value="contact" style="ellipse;shape=doubleEllipse;margin=3;whiteSpace=wrap;html=1;align=center;" parent="1" vertex="1">
          <mxGeometry x="400" width="110" height="50" as="geometry" />
        </mxCell>
        <mxCell id="W1MvwOD-hxLA4omaz6n4-18" style="edgeStyle=orthogonalEdgeStyle;rounded=0;orthogonalLoop=1;jettySize=auto;html=1;endArrow=none;endFill=0;entryX=0.648;entryY=-0.007;entryDx=0;entryDy=0;entryPerimeter=0;" parent="1" source="W1MvwOD-hxLA4omaz6n4-17" target="D_2TPNSe9pJ0Xu-pH0Qq-1" edge="1">
          <mxGeometry relative="1" as="geometry">
            <mxPoint x="440" y="350" as="targetPoint" />
            <Array as="points">
              <mxPoint x="450" y="200" />
            </Array>
          </mxGeometry>
        </mxCell>
        <mxCell id="W1MvwOD-hxLA4omaz6n4-30" style="edgeStyle=orthogonalEdgeStyle;rounded=0;orthogonalLoop=1;jettySize=auto;html=1;endArrow=none;endFill=0;" parent="1" source="W1MvwOD-hxLA4omaz6n4-19" edge="1">
          <mxGeometry relative="1" as="geometry">
            <mxPoint x="400" y="140" as="targetPoint" />
          </mxGeometry>
        </mxCell>
        <mxCell id="W1MvwOD-hxLA4omaz6n4-19" value="Pateint_ID" style="ellipse;whiteSpace=wrap;html=1;align=center;fontStyle=4" parent="1" vertex="1">
          <mxGeometry x="275" y="120" width="100" height="40" as="geometry" />
        </mxCell>
        <mxCell id="W1MvwOD-hxLA4omaz6n4-20" style="edgeStyle=orthogonalEdgeStyle;rounded=0;orthogonalLoop=1;jettySize=auto;html=1;entryX=0.25;entryY=0;entryDx=0;entryDy=0;endArrow=none;endFill=0;" parent="1" target="D_2TPNSe9pJ0Xu-pH0Qq-1" edge="1">
          <mxGeometry relative="1" as="geometry">
            <mxPoint x="380" y="139.9999999999999" as="sourcePoint" />
            <mxPoint x="415" y="349.9999999999999" as="targetPoint" />
            <Array as="points">
              <mxPoint x="380" y="141" />
              <mxPoint x="410" y="141" />
            </Array>
          </mxGeometry>
        </mxCell>
        <mxCell id="W1MvwOD-hxLA4omaz6n4-23" style="edgeStyle=orthogonalEdgeStyle;rounded=0;orthogonalLoop=1;jettySize=auto;html=1;entryX=0.75;entryY=0;entryDx=0;entryDy=0;endArrow=none;endFill=0;" parent="1" source="W1MvwOD-hxLA4omaz6n4-22" target="D_2TPNSe9pJ0Xu-pH0Qq-1" edge="1">
          <mxGeometry relative="1" as="geometry" />
        </mxCell>
        <mxCell id="W1MvwOD-hxLA4omaz6n4-22" value="Name" style="ellipse;whiteSpace=wrap;html=1;align=center;" parent="1" vertex="1">
          <mxGeometry x="500" y="120" width="100" height="40" as="geometry" />
        </mxCell>
        <mxCell id="W1MvwOD-hxLA4omaz6n4-26" style="edgeStyle=orthogonalEdgeStyle;rounded=0;orthogonalLoop=1;jettySize=auto;html=1;entryX=0.5;entryY=0;entryDx=0;entryDy=0;endArrow=none;endFill=0;" parent="1" source="W1MvwOD-hxLA4omaz6n4-25" target="W1MvwOD-hxLA4omaz6n4-22" edge="1">
          <mxGeometry relative="1" as="geometry" />
        </mxCell>
        <mxCell id="W1MvwOD-hxLA4omaz6n4-25" value="F_Name" style="ellipse;whiteSpace=wrap;html=1;align=center;" parent="1" vertex="1">
          <mxGeometry x="500" y="40" width="100" height="40" as="geometry" />
        </mxCell>
        <mxCell id="W1MvwOD-hxLA4omaz6n4-28" style="edgeStyle=orthogonalEdgeStyle;rounded=0;orthogonalLoop=1;jettySize=auto;html=1;entryX=1;entryY=0.5;entryDx=0;entryDy=0;exitX=0.446;exitY=1.017;exitDx=0;exitDy=0;exitPerimeter=0;endArrow=none;endFill=0;" parent="1" source="W1MvwOD-hxLA4omaz6n4-27" target="W1MvwOD-hxLA4omaz6n4-22" edge="1">
          <mxGeometry relative="1" as="geometry" />
        </mxCell>
        <mxCell id="W1MvwOD-hxLA4omaz6n4-27" value="L_Name" style="ellipse;whiteSpace=wrap;html=1;align=center;" parent="1" vertex="1">
          <mxGeometry x="615" y="40" width="100" height="40" as="geometry" />
        </mxCell>
        <mxCell id="W1MvwOD-hxLA4omaz6n4-29" value="Gender" style="ellipse;whiteSpace=wrap;html=1;align=center;" parent="1" vertex="1">
          <mxGeometry x="500" y="170" width="100" height="40" as="geometry" />
        </mxCell>
        <mxCell id="W1MvwOD-hxLA4omaz6n4-31" style="edgeStyle=orthogonalEdgeStyle;rounded=0;orthogonalLoop=1;jettySize=auto;html=1;endArrow=none;endFill=0;entryX=0.874;entryY=0.001;entryDx=0;entryDy=0;entryPerimeter=0;" parent="1" source="W1MvwOD-hxLA4omaz6n4-29" target="D_2TPNSe9pJ0Xu-pH0Qq-1" edge="1">
          <mxGeometry relative="1" as="geometry">
            <mxPoint x="472" y="346" as="targetPoint" />
          </mxGeometry>
        </mxCell>
        <mxCell id="W1MvwOD-hxLA4omaz6n4-32" value="Age" style="ellipse;whiteSpace=wrap;html=1;align=center;" parent="1" vertex="1">
          <mxGeometry x="165" y="120" width="100" height="40" as="geometry" />
        </mxCell>
        <mxCell id="W1MvwOD-hxLA4omaz6n4-33" style="edgeStyle=orthogonalEdgeStyle;rounded=0;orthogonalLoop=1;jettySize=auto;html=1;entryX=0.111;entryY=0.002;entryDx=0;entryDy=0;entryPerimeter=0;endArrow=none;endFill=0;exitX=0.5;exitY=1;exitDx=0;exitDy=0;" parent="1" source="W1MvwOD-hxLA4omaz6n4-32" target="D_2TPNSe9pJ0Xu-pH0Qq-1" edge="1">
          <mxGeometry relative="1" as="geometry">
            <Array as="points">
              <mxPoint x="215" y="200" />
              <mxPoint x="396" y="200" />
            </Array>
          </mxGeometry>
        </mxCell>
        <mxCell id="W1MvwOD-hxLA4omaz6n4-35" style="edgeStyle=orthogonalEdgeStyle;rounded=0;orthogonalLoop=1;jettySize=auto;html=1;endArrow=none;endFill=0;entryX=0.513;entryY=-0.005;entryDx=0;entryDy=0;entryPerimeter=0;" parent="1" source="W1MvwOD-hxLA4omaz6n4-34" target="D_2TPNSe9pJ0Xu-pH0Qq-1" edge="1">
          <mxGeometry relative="1" as="geometry">
            <Array as="points">
              <mxPoint x="325" y="60" />
              <mxPoint x="436" y="60" />
              <mxPoint x="436" y="350" />
            </Array>
          </mxGeometry>
        </mxCell>
        <mxCell id="W1MvwOD-hxLA4omaz6n4-34" value="Address" style="ellipse;whiteSpace=wrap;html=1;align=center;" parent="1" vertex="1">
          <mxGeometry x="275" y="5" width="100" height="40" as="geometry" />
        </mxCell>
        <mxCell id="W1MvwOD-hxLA4omaz6n4-36" value="Medical History" style="ellipse;whiteSpace=wrap;html=1;align=center;" parent="1" vertex="1">
          <mxGeometry x="275" y="70" width="100" height="40" as="geometry" />
        </mxCell>
        <mxCell id="W1MvwOD-hxLA4omaz6n4-37" style="edgeStyle=orthogonalEdgeStyle;rounded=0;orthogonalLoop=1;jettySize=auto;html=1;entryX=0.392;entryY=-0.003;entryDx=0;entryDy=0;entryPerimeter=0;endArrow=none;endFill=0;" parent="1" source="W1MvwOD-hxLA4omaz6n4-36" target="D_2TPNSe9pJ0Xu-pH0Qq-1" edge="1">
          <mxGeometry relative="1" as="geometry">
            <Array as="points">
              <mxPoint x="424" y="90" />
            </Array>
          </mxGeometry>
        </mxCell>
        <mxCell id="W1MvwOD-hxLA4omaz6n4-39" style="edgeStyle=orthogonalEdgeStyle;rounded=0;orthogonalLoop=1;jettySize=auto;html=1;entryX=1;entryY=0.25;entryDx=0;entryDy=0;exitX=0.5;exitY=1;exitDx=0;exitDy=0;endArrow=none;endFill=0;" parent="1" source="W1MvwOD-hxLA4omaz6n4-38" target="D_2TPNSe9pJ0Xu-pH0Qq-37" edge="1">
          <mxGeometry relative="1" as="geometry">
            <Array as="points">
              <mxPoint x="510" y="530" />
              <mxPoint x="510" y="560" />
            </Array>
          </mxGeometry>
        </mxCell>
        <mxCell id="W1MvwOD-hxLA4omaz6n4-38" value="Doctor_ID" style="ellipse;whiteSpace=wrap;html=1;align=center;fontStyle=4;" parent="1" vertex="1">
          <mxGeometry x="575" y="510" width="65" height="40" as="geometry" />
        </mxCell>
        <mxCell id="W1MvwOD-hxLA4omaz6n4-41" style="edgeStyle=orthogonalEdgeStyle;rounded=0;orthogonalLoop=1;jettySize=auto;html=1;entryX=0;entryY=0.5;entryDx=0;entryDy=0;endArrow=none;endFill=0;" parent="1" source="W1MvwOD-hxLA4omaz6n4-40" target="D_2TPNSe9pJ0Xu-pH0Qq-37" edge="1">
          <mxGeometry relative="1" as="geometry" />
        </mxCell>
        <mxCell id="W1MvwOD-hxLA4omaz6n4-40" value="Name" style="ellipse;whiteSpace=wrap;html=1;align=center;" parent="1" vertex="1">
          <mxGeometry x="300" y="500" width="100" height="40" as="geometry" />
        </mxCell>
        <mxCell id="W1MvwOD-hxLA4omaz6n4-45" style="edgeStyle=orthogonalEdgeStyle;rounded=0;orthogonalLoop=1;jettySize=auto;html=1;exitX=1;exitY=0.5;exitDx=0;exitDy=0;entryX=0;entryY=0.75;entryDx=0;entryDy=0;endArrow=none;endFill=0;" parent="1" source="W1MvwOD-hxLA4omaz6n4-44" target="D_2TPNSe9pJ0Xu-pH0Qq-37" edge="1">
          <mxGeometry relative="1" as="geometry">
            <Array as="points">
              <mxPoint x="290" y="550" />
              <mxPoint x="340" y="550" />
              <mxPoint x="340" y="580" />
            </Array>
          </mxGeometry>
        </mxCell>
        <mxCell id="W1MvwOD-hxLA4omaz6n4-44" value="Speciality" style="ellipse;shape=doubleEllipse;margin=3;whiteSpace=wrap;html=1;align=center;" parent="1" vertex="1">
          <mxGeometry x="190" y="510" width="100" height="40" as="geometry" />
        </mxCell>
        <mxCell id="W1MvwOD-hxLA4omaz6n4-47" style="edgeStyle=orthogonalEdgeStyle;rounded=0;orthogonalLoop=1;jettySize=auto;html=1;entryX=0;entryY=1;entryDx=0;entryDy=0;endArrow=none;endFill=0;" parent="1" source="W1MvwOD-hxLA4omaz6n4-46" target="D_2TPNSe9pJ0Xu-pH0Qq-37" edge="1">
          <mxGeometry relative="1" as="geometry">
            <Array as="points">
              <mxPoint x="320" y="590" />
              <mxPoint x="320" y="590" />
            </Array>
          </mxGeometry>
        </mxCell>
        <mxCell id="W1MvwOD-hxLA4omaz6n4-46" value="Qualification" style="ellipse;whiteSpace=wrap;html=1;align=center;" parent="1" vertex="1">
          <mxGeometry x="200" y="560" width="100" height="40" as="geometry" />
        </mxCell>
        <mxCell id="W1MvwOD-hxLA4omaz6n4-49" style="edgeStyle=orthogonalEdgeStyle;rounded=0;orthogonalLoop=1;jettySize=auto;html=1;entryX=0.25;entryY=1;entryDx=0;entryDy=0;endArrow=none;endFill=0;" parent="1" source="W1MvwOD-hxLA4omaz6n4-48" target="D_2TPNSe9pJ0Xu-pH0Qq-37" edge="1">
          <mxGeometry relative="1" as="geometry">
            <Array as="points">
              <mxPoint x="290" y="630" />
              <mxPoint x="290" y="600" />
              <mxPoint x="415" y="600" />
            </Array>
          </mxGeometry>
        </mxCell>
        <mxCell id="W1MvwOD-hxLA4omaz6n4-48" value="Work schedule" style="ellipse;whiteSpace=wrap;html=1;align=center;" parent="1" vertex="1">
          <mxGeometry x="150" y="610" width="70" height="40" as="geometry" />
        </mxCell>
        <mxCell id="W1MvwOD-hxLA4omaz6n4-50" value="Contact Information" style="ellipse;shape=doubleEllipse;margin=3;whiteSpace=wrap;html=1;align=center;" parent="1" vertex="1">
          <mxGeometry x="510" y="470" width="90" height="40" as="geometry" />
        </mxCell>
        <mxCell id="W1MvwOD-hxLA4omaz6n4-55" style="edgeStyle=orthogonalEdgeStyle;rounded=0;orthogonalLoop=1;jettySize=auto;html=1;exitX=0.5;exitY=1;exitDx=0;exitDy=0;entryX=1;entryY=0.25;entryDx=0;entryDy=0;endArrow=none;endFill=0;" parent="1" source="W1MvwOD-hxLA4omaz6n4-54" target="D_2TPNSe9pJ0Xu-pH0Qq-24" edge="1">
          <mxGeometry relative="1" as="geometry" />
        </mxCell>
        <mxCell id="W1MvwOD-hxLA4omaz6n4-54" value="Appointment_ID" style="ellipse;whiteSpace=wrap;html=1;align=center;fontStyle=4;" parent="1" vertex="1">
          <mxGeometry x="175" y="290" width="100" height="40" as="geometry" />
        </mxCell>
        <mxCell id="W1MvwOD-hxLA4omaz6n4-57" style="edgeStyle=orthogonalEdgeStyle;rounded=0;orthogonalLoop=1;jettySize=auto;html=1;endArrow=none;endFill=0;" parent="1" source="W1MvwOD-hxLA4omaz6n4-56" target="D_2TPNSe9pJ0Xu-pH0Qq-24" edge="1">
          <mxGeometry relative="1" as="geometry">
            <Array as="points">
              <mxPoint x="130" y="260" />
              <mxPoint x="130" y="260" />
            </Array>
          </mxGeometry>
        </mxCell>
        <mxCell id="W1MvwOD-hxLA4omaz6n4-56" value="Date" style="ellipse;whiteSpace=wrap;html=1;align=center;" parent="1" vertex="1">
          <mxGeometry x="80" y="170" width="100" height="40" as="geometry" />
        </mxCell>
        <mxCell id="W1MvwOD-hxLA4omaz6n4-59" value="" style="edgeStyle=orthogonalEdgeStyle;rounded=0;orthogonalLoop=1;jettySize=auto;html=1;endArrow=none;endFill=0;" parent="1" source="W1MvwOD-hxLA4omaz6n4-58" target="D_2TPNSe9pJ0Xu-pH0Qq-24" edge="1">
          <mxGeometry relative="1" as="geometry">
            <Array as="points">
              <mxPoint x="50" y="240" />
              <mxPoint x="105" y="240" />
            </Array>
          </mxGeometry>
        </mxCell>
        <mxCell id="W1MvwOD-hxLA4omaz6n4-58" value="Time" style="ellipse;whiteSpace=wrap;html=1;align=center;" parent="1" vertex="1">
          <mxGeometry y="120" width="100" height="40" as="geometry" />
        </mxCell>
        <mxCell id="W1MvwOD-hxLA4omaz6n4-62" style="edgeStyle=orthogonalEdgeStyle;rounded=0;orthogonalLoop=1;jettySize=auto;html=1;entryX=0;entryY=0.25;entryDx=0;entryDy=0;endArrow=none;endFill=0;" parent="1" source="W1MvwOD-hxLA4omaz6n4-60" target="D_2TPNSe9pJ0Xu-pH0Qq-24" edge="1">
          <mxGeometry relative="1" as="geometry">
            <Array as="points">
              <mxPoint x="50" y="360" />
            </Array>
          </mxGeometry>
        </mxCell>
        <mxCell id="W1MvwOD-hxLA4omaz6n4-60" value="status" style="ellipse;whiteSpace=wrap;html=1;align=center;" parent="1" vertex="1">
          <mxGeometry y="270" width="100" height="40" as="geometry" />
        </mxCell>
        <mxCell id="W1MvwOD-hxLA4omaz6n4-64" style="edgeStyle=orthogonalEdgeStyle;rounded=0;orthogonalLoop=1;jettySize=auto;html=1;entryX=0;entryY=0;entryDx=0;entryDy=0;endArrow=none;endFill=0;" parent="1" target="D_2TPNSe9pJ0Xu-pH0Qq-27" edge="1">
          <mxGeometry relative="1" as="geometry">
            <mxPoint x="710" y="300" as="sourcePoint" />
            <Array as="points">
              <mxPoint x="715" y="300" />
            </Array>
          </mxGeometry>
        </mxCell>
        <mxCell id="W1MvwOD-hxLA4omaz6n4-65" value="Room_ID" style="ellipse;whiteSpace=wrap;html=1;align=center;fontStyle=4;" parent="1" vertex="1">
          <mxGeometry x="610" y="280" width="100" height="40" as="geometry" />
        </mxCell>
        <mxCell id="W1MvwOD-hxLA4omaz6n4-67" style="edgeStyle=orthogonalEdgeStyle;rounded=0;orthogonalLoop=1;jettySize=auto;html=1;entryX=0.25;entryY=0;entryDx=0;entryDy=0;endArrow=none;endFill=0;" parent="1" source="W1MvwOD-hxLA4omaz6n4-66" target="D_2TPNSe9pJ0Xu-pH0Qq-27" edge="1">
          <mxGeometry relative="1" as="geometry">
            <Array as="points">
              <mxPoint x="740" y="190" />
            </Array>
          </mxGeometry>
        </mxCell>
        <mxCell id="W1MvwOD-hxLA4omaz6n4-66" value="Room_type" style="ellipse;whiteSpace=wrap;html=1;align=center;" parent="1" vertex="1">
          <mxGeometry x="625" y="170" width="100" height="40" as="geometry" />
        </mxCell>
        <mxCell id="W1MvwOD-hxLA4omaz6n4-69" style="edgeStyle=orthogonalEdgeStyle;rounded=0;orthogonalLoop=1;jettySize=auto;html=1;exitX=0.5;exitY=1;exitDx=0;exitDy=0;entryX=0.5;entryY=0;entryDx=0;entryDy=0;endArrow=none;endFill=0;" parent="1" source="W1MvwOD-hxLA4omaz6n4-68" target="D_2TPNSe9pJ0Xu-pH0Qq-27" edge="1">
          <mxGeometry relative="1" as="geometry">
            <Array as="points">
              <mxPoint x="765" y="160" />
            </Array>
          </mxGeometry>
        </mxCell>
        <mxCell id="W1MvwOD-hxLA4omaz6n4-68" value="Bed_count" style="ellipse;whiteSpace=wrap;html=1;align=center;" parent="1" vertex="1">
          <mxGeometry x="675" y="120" width="100" height="40" as="geometry" />
        </mxCell>
        <mxCell id="W1MvwOD-hxLA4omaz6n4-71" style="edgeStyle=orthogonalEdgeStyle;rounded=0;orthogonalLoop=1;jettySize=auto;html=1;entryX=0.75;entryY=0;entryDx=0;entryDy=0;endArrow=none;endFill=0;" parent="1" source="W1MvwOD-hxLA4omaz6n4-70" target="D_2TPNSe9pJ0Xu-pH0Qq-27" edge="1">
          <mxGeometry relative="1" as="geometry" />
        </mxCell>
        <mxCell id="W1MvwOD-hxLA4omaz6n4-70" value="Availability&amp;nbsp;&lt;div&gt;s&lt;span style=&quot;background-color: initial;&quot;&gt;tatus&lt;/span&gt;&lt;/div&gt;" style="ellipse;whiteSpace=wrap;html=1;align=center;" parent="1" vertex="1">
          <mxGeometry x="740" y="70" width="100" height="40" as="geometry" />
        </mxCell>
        <mxCell id="W1MvwOD-hxLA4omaz6n4-73" style="edgeStyle=orthogonalEdgeStyle;rounded=0;orthogonalLoop=1;jettySize=auto;html=1;entryX=0;entryY=0.5;entryDx=0;entryDy=0;endArrow=none;endFill=0;" parent="1" source="W1MvwOD-hxLA4omaz6n4-72" target="D_2TPNSe9pJ0Xu-pH0Qq-102" edge="1">
          <mxGeometry relative="1" as="geometry" />
        </mxCell>
        <mxCell id="W1MvwOD-hxLA4omaz6n4-72" value="Record_ID" style="ellipse;whiteSpace=wrap;html=1;align=center;fontStyle=4;" parent="1" vertex="1">
          <mxGeometry x="55" y="930" width="100" height="40" as="geometry" />
        </mxCell>
        <mxCell id="W1MvwOD-hxLA4omaz6n4-76" style="edgeStyle=orthogonalEdgeStyle;rounded=0;orthogonalLoop=1;jettySize=auto;html=1;entryX=0;entryY=0.75;entryDx=0;entryDy=0;endArrow=none;endFill=0;" parent="1" source="W1MvwOD-hxLA4omaz6n4-74" target="D_2TPNSe9pJ0Xu-pH0Qq-102" edge="1">
          <mxGeometry relative="1" as="geometry">
            <Array as="points">
              <mxPoint x="200" y="1000" />
              <mxPoint x="200" y="910" />
            </Array>
          </mxGeometry>
        </mxCell>
        <mxCell id="W1MvwOD-hxLA4omaz6n4-74" value="Name" style="ellipse;whiteSpace=wrap;html=1;align=center;" parent="1" vertex="1">
          <mxGeometry x="55" y="980" width="100" height="40" as="geometry" />
        </mxCell>
        <mxCell id="W1MvwOD-hxLA4omaz6n4-78" style="edgeStyle=orthogonalEdgeStyle;rounded=0;orthogonalLoop=1;jettySize=auto;html=1;entryX=0;entryY=1;entryDx=0;entryDy=0;endArrow=none;endFill=0;" parent="1" source="W1MvwOD-hxLA4omaz6n4-77" target="D_2TPNSe9pJ0Xu-pH0Qq-102" edge="1">
          <mxGeometry relative="1" as="geometry">
            <Array as="points">
              <mxPoint x="220" y="920" />
            </Array>
          </mxGeometry>
        </mxCell>
        <mxCell id="W1MvwOD-hxLA4omaz6n4-77" value="Manufacturer" style="ellipse;whiteSpace=wrap;html=1;align=center;" parent="1" vertex="1">
          <mxGeometry x="170" y="1010" width="100" height="40" as="geometry" />
        </mxCell>
        <mxCell id="W1MvwOD-hxLA4omaz6n4-80" style="edgeStyle=orthogonalEdgeStyle;rounded=0;orthogonalLoop=1;jettySize=auto;html=1;entryX=0.5;entryY=1;entryDx=0;entryDy=0;endArrow=none;endFill=0;" parent="1" source="W1MvwOD-hxLA4omaz6n4-79" target="D_2TPNSe9pJ0Xu-pH0Qq-102" edge="1">
          <mxGeometry relative="1" as="geometry">
            <Array as="points">
              <mxPoint x="270" y="920" />
            </Array>
          </mxGeometry>
        </mxCell>
        <mxCell id="W1MvwOD-hxLA4omaz6n4-79" value="Dosage" style="ellipse;whiteSpace=wrap;html=1;align=center;" parent="1" vertex="1">
          <mxGeometry x="225" y="950" width="100" height="40" as="geometry" />
        </mxCell>
        <mxCell id="W1MvwOD-hxLA4omaz6n4-81" value="Expiry_Date" style="ellipse;whiteSpace=wrap;html=1;align=center;" parent="1" vertex="1">
          <mxGeometry x="280" y="1010" width="100" height="40" as="geometry" />
        </mxCell>
        <mxCell id="fimtvKSlJ7NghBmaBBVM-36" style="edgeStyle=orthogonalEdgeStyle;rounded=0;orthogonalLoop=1;jettySize=auto;html=1;exitX=1;exitY=0;exitDx=0;exitDy=0;entryX=0;entryY=1;entryDx=0;entryDy=0;endArrow=none;endFill=0;" edge="1" parent="1" source="W1MvwOD-hxLA4omaz6n4-84" target="D_2TPNSe9pJ0Xu-pH0Qq-108">
          <mxGeometry relative="1" as="geometry" />
        </mxCell>
        <mxCell id="W1MvwOD-hxLA4omaz6n4-84" value="Department_ID" style="ellipse;whiteSpace=wrap;html=1;align=center;fontStyle=4;" parent="1" vertex="1">
          <mxGeometry x="300" y="820" width="100" height="40" as="geometry" />
        </mxCell>
        <mxCell id="W1MvwOD-hxLA4omaz6n4-87" style="edgeStyle=orthogonalEdgeStyle;rounded=0;orthogonalLoop=1;jettySize=auto;html=1;entryX=0.25;entryY=1;entryDx=0;entryDy=0;endArrow=none;endFill=0;" parent="1" source="W1MvwOD-hxLA4omaz6n4-86" target="D_2TPNSe9pJ0Xu-pH0Qq-108" edge="1">
          <mxGeometry relative="1" as="geometry">
            <Array as="points">
              <mxPoint x="410" y="860" />
              <mxPoint x="410" y="860" />
            </Array>
          </mxGeometry>
        </mxCell>
        <mxCell id="W1MvwOD-hxLA4omaz6n4-86" value="Location" style="ellipse;whiteSpace=wrap;html=1;align=center;" parent="1" vertex="1">
          <mxGeometry x="325" y="880" width="100" height="40" as="geometry" />
        </mxCell>
        <mxCell id="W1MvwOD-hxLA4omaz6n4-89" style="edgeStyle=orthogonalEdgeStyle;rounded=0;orthogonalLoop=1;jettySize=auto;html=1;entryX=1;entryY=1;entryDx=0;entryDy=0;endArrow=none;endFill=0;" parent="1" source="W1MvwOD-hxLA4omaz6n4-88" target="D_2TPNSe9pJ0Xu-pH0Qq-108" edge="1">
          <mxGeometry relative="1" as="geometry" />
        </mxCell>
        <mxCell id="W1MvwOD-hxLA4omaz6n4-88" value="Head of Department" style="ellipse;whiteSpace=wrap;html=1;align=center;" parent="1" vertex="1">
          <mxGeometry x="460" y="810" width="100" height="40" as="geometry" />
        </mxCell>
        <mxCell id="fimtvKSlJ7NghBmaBBVM-1" value="Bill_ID" style="ellipse;whiteSpace=wrap;html=1;align=center;fontStyle=4;" vertex="1" parent="1">
          <mxGeometry x="55" y="600" width="45" height="40" as="geometry" />
        </mxCell>
        <mxCell id="fimtvKSlJ7NghBmaBBVM-2" style="edgeStyle=orthogonalEdgeStyle;rounded=0;orthogonalLoop=1;jettySize=auto;html=1;entryX=0.083;entryY=0.005;entryDx=0;entryDy=0;entryPerimeter=0;exitX=0.017;exitY=0.558;exitDx=0;exitDy=0;exitPerimeter=0;endArrow=none;endFill=0;" edge="1" parent="1" source="fimtvKSlJ7NghBmaBBVM-1" target="D_2TPNSe9pJ0Xu-pH0Qq-58">
          <mxGeometry relative="1" as="geometry">
            <Array as="points">
              <mxPoint x="56" y="680" />
              <mxPoint x="56" y="720" />
            </Array>
          </mxGeometry>
        </mxCell>
        <mxCell id="fimtvKSlJ7NghBmaBBVM-5" style="edgeStyle=orthogonalEdgeStyle;rounded=0;orthogonalLoop=1;jettySize=auto;html=1;entryX=0.75;entryY=0;entryDx=0;entryDy=0;endArrow=none;endFill=0;" edge="1" parent="1" source="fimtvKSlJ7NghBmaBBVM-4" target="D_2TPNSe9pJ0Xu-pH0Qq-58">
          <mxGeometry relative="1" as="geometry">
            <Array as="points">
              <mxPoint x="120" y="690" />
              <mxPoint x="120" y="690" />
            </Array>
          </mxGeometry>
        </mxCell>
        <mxCell id="fimtvKSlJ7NghBmaBBVM-4" value="Total_Amount" style="ellipse;whiteSpace=wrap;html=1;align=center;" vertex="1" parent="1">
          <mxGeometry x="70" y="640" width="90" height="40" as="geometry" />
        </mxCell>
        <mxCell id="fimtvKSlJ7NghBmaBBVM-7" style="edgeStyle=orthogonalEdgeStyle;rounded=0;orthogonalLoop=1;jettySize=auto;html=1;entryX=0;entryY=1;entryDx=0;entryDy=0;endArrow=none;endFill=0;" edge="1" parent="1" source="fimtvKSlJ7NghBmaBBVM-6" target="W1MvwOD-hxLA4omaz6n4-7">
          <mxGeometry relative="1" as="geometry">
            <mxPoint x="730" y="920" as="targetPoint" />
          </mxGeometry>
        </mxCell>
        <mxCell id="fimtvKSlJ7NghBmaBBVM-6" value="Equipement_ID" style="ellipse;whiteSpace=wrap;html=1;align=center;fontStyle=4;" vertex="1" parent="1">
          <mxGeometry x="555" y="910" width="100" height="40" as="geometry" />
        </mxCell>
        <mxCell id="fimtvKSlJ7NghBmaBBVM-8" value="Name" style="ellipse;whiteSpace=wrap;html=1;align=center;" vertex="1" parent="1">
          <mxGeometry x="565" y="960" width="75" height="40" as="geometry" />
        </mxCell>
        <mxCell id="fimtvKSlJ7NghBmaBBVM-9" value="Type" style="ellipse;whiteSpace=wrap;html=1;align=center;" vertex="1" parent="1">
          <mxGeometry x="780" y="960" width="70" height="40" as="geometry" />
        </mxCell>
        <mxCell id="fimtvKSlJ7NghBmaBBVM-10" value="Assigned&lt;div&gt;Department&lt;/div&gt;" style="ellipse;whiteSpace=wrap;html=1;align=center;" vertex="1" parent="1">
          <mxGeometry x="740" y="1040" width="100" height="40" as="geometry" />
        </mxCell>
        <mxCell id="fimtvKSlJ7NghBmaBBVM-11" value="Maintenance Scedule" style="ellipse;whiteSpace=wrap;html=1;align=center;" vertex="1" parent="1">
          <mxGeometry x="615" y="1010" width="100" height="40" as="geometry" />
        </mxCell>
        <mxCell id="fimtvKSlJ7NghBmaBBVM-13" style="edgeStyle=orthogonalEdgeStyle;rounded=0;orthogonalLoop=1;jettySize=auto;html=1;entryX=0.149;entryY=1.005;entryDx=0;entryDy=0;entryPerimeter=0;endArrow=none;endFill=0;" edge="1" parent="1" source="fimtvKSlJ7NghBmaBBVM-8" target="W1MvwOD-hxLA4omaz6n4-7">
          <mxGeometry relative="1" as="geometry" />
        </mxCell>
        <mxCell id="fimtvKSlJ7NghBmaBBVM-14" style="edgeStyle=orthogonalEdgeStyle;rounded=0;orthogonalLoop=1;jettySize=auto;html=1;entryX=0.89;entryY=0.986;entryDx=0;entryDy=0;entryPerimeter=0;endArrow=none;endFill=0;" edge="1" parent="1" source="fimtvKSlJ7NghBmaBBVM-9" target="W1MvwOD-hxLA4omaz6n4-7">
          <mxGeometry relative="1" as="geometry">
            <Array as="points">
              <mxPoint x="815" y="869" />
            </Array>
          </mxGeometry>
        </mxCell>
        <mxCell id="fimtvKSlJ7NghBmaBBVM-15" style="edgeStyle=orthogonalEdgeStyle;rounded=0;orthogonalLoop=1;jettySize=auto;html=1;entryX=0.61;entryY=0.984;entryDx=0;entryDy=0;entryPerimeter=0;endArrow=none;endFill=0;" edge="1" parent="1" source="fimtvKSlJ7NghBmaBBVM-10" target="W1MvwOD-hxLA4omaz6n4-7">
          <mxGeometry relative="1" as="geometry">
            <Array as="points">
              <mxPoint x="776" y="1000" />
              <mxPoint x="776" y="1000" />
            </Array>
          </mxGeometry>
        </mxCell>
        <mxCell id="fimtvKSlJ7NghBmaBBVM-16" style="edgeStyle=orthogonalEdgeStyle;rounded=0;orthogonalLoop=1;jettySize=auto;html=1;entryX=0.352;entryY=1.012;entryDx=0;entryDy=0;entryPerimeter=0;endArrow=none;endFill=0;" edge="1" parent="1" source="fimtvKSlJ7NghBmaBBVM-11" target="W1MvwOD-hxLA4omaz6n4-7">
          <mxGeometry relative="1" as="geometry">
            <Array as="points">
              <mxPoint x="750" y="1030" />
              <mxPoint x="750" y="940" />
            </Array>
          </mxGeometry>
        </mxCell>
        <mxCell id="fimtvKSlJ7NghBmaBBVM-19" style="edgeStyle=orthogonalEdgeStyle;rounded=0;orthogonalLoop=1;jettySize=auto;html=1;exitX=0;exitY=0.5;exitDx=0;exitDy=0;entryX=0.5;entryY=0;entryDx=0;entryDy=0;endArrow=none;endFill=0;" edge="1" parent="1" source="fimtvKSlJ7NghBmaBBVM-18" target="D_2TPNSe9pJ0Xu-pH0Qq-48">
          <mxGeometry relative="1" as="geometry">
            <Array as="points">
              <mxPoint x="700" y="480" />
              <mxPoint x="670" y="480" />
              <mxPoint x="670" y="550" />
            </Array>
          </mxGeometry>
        </mxCell>
        <mxCell id="fimtvKSlJ7NghBmaBBVM-18" value="Test_ID" style="ellipse;whiteSpace=wrap;html=1;align=center;fontStyle=4;" vertex="1" parent="1">
          <mxGeometry x="685" y="420" width="55" height="40" as="geometry" />
        </mxCell>
        <mxCell id="fimtvKSlJ7NghBmaBBVM-21" style="edgeStyle=orthogonalEdgeStyle;rounded=0;orthogonalLoop=1;jettySize=auto;html=1;entryX=0.5;entryY=0;entryDx=0;entryDy=0;endArrow=none;endFill=0;" edge="1" parent="1" source="fimtvKSlJ7NghBmaBBVM-20" target="D_2TPNSe9pJ0Xu-pH0Qq-48">
          <mxGeometry relative="1" as="geometry" />
        </mxCell>
        <mxCell id="fimtvKSlJ7NghBmaBBVM-20" value="Test Type" style="ellipse;whiteSpace=wrap;html=1;align=center;" vertex="1" parent="1">
          <mxGeometry x="720" y="460" width="80" height="40" as="geometry" />
        </mxCell>
        <mxCell id="fimtvKSlJ7NghBmaBBVM-22" value="Date" style="ellipse;whiteSpace=wrap;html=1;align=center;" vertex="1" parent="1">
          <mxGeometry x="775" y="500" width="50" height="40" as="geometry" />
        </mxCell>
        <mxCell id="fimtvKSlJ7NghBmaBBVM-25" style="edgeStyle=orthogonalEdgeStyle;rounded=0;orthogonalLoop=1;jettySize=auto;html=1;entryX=1;entryY=0.75;entryDx=0;entryDy=0;endArrow=none;endFill=0;" edge="1" parent="1" source="fimtvKSlJ7NghBmaBBVM-23" target="D_2TPNSe9pJ0Xu-pH0Qq-48">
          <mxGeometry relative="1" as="geometry" />
        </mxCell>
        <mxCell id="fimtvKSlJ7NghBmaBBVM-23" value="Results" style="ellipse;whiteSpace=wrap;html=1;align=center;" vertex="1" parent="1">
          <mxGeometry x="750" y="560" width="80" height="40" as="geometry" />
        </mxCell>
        <mxCell id="fimtvKSlJ7NghBmaBBVM-24" style="edgeStyle=orthogonalEdgeStyle;rounded=0;orthogonalLoop=1;jettySize=auto;html=1;entryX=1;entryY=0;entryDx=0;entryDy=0;exitX=0.5;exitY=1;exitDx=0;exitDy=0;endArrow=none;endFill=0;" edge="1" parent="1" source="fimtvKSlJ7NghBmaBBVM-22" target="D_2TPNSe9pJ0Xu-pH0Qq-48">
          <mxGeometry relative="1" as="geometry">
            <Array as="points">
              <mxPoint x="800" y="550" />
            </Array>
          </mxGeometry>
        </mxCell>
        <mxCell id="fimtvKSlJ7NghBmaBBVM-27" style="edgeStyle=orthogonalEdgeStyle;rounded=0;orthogonalLoop=1;jettySize=auto;html=1;entryX=0;entryY=0;entryDx=0;entryDy=0;endArrow=none;endFill=0;" edge="1" parent="1" source="fimtvKSlJ7NghBmaBBVM-26" target="D_2TPNSe9pJ0Xu-pH0Qq-111">
          <mxGeometry relative="1" as="geometry" />
        </mxCell>
        <mxCell id="fimtvKSlJ7NghBmaBBVM-26" value="Staff_ID" style="ellipse;whiteSpace=wrap;html=1;align=center;fontStyle=4;" vertex="1" parent="1">
          <mxGeometry x="530" y="640" width="100" height="40" as="geometry" />
        </mxCell>
        <mxCell id="fimtvKSlJ7NghBmaBBVM-29" style="edgeStyle=orthogonalEdgeStyle;rounded=0;orthogonalLoop=1;jettySize=auto;html=1;entryX=1;entryY=0;entryDx=0;entryDy=0;endArrow=none;endFill=0;" edge="1" parent="1" source="fimtvKSlJ7NghBmaBBVM-28" target="D_2TPNSe9pJ0Xu-pH0Qq-111">
          <mxGeometry relative="1" as="geometry" />
        </mxCell>
        <mxCell id="fimtvKSlJ7NghBmaBBVM-28" value="Contact" style="ellipse;shape=doubleEllipse;margin=3;whiteSpace=wrap;html=1;align=center;" vertex="1" parent="1">
          <mxGeometry x="635" y="640" width="60" height="40" as="geometry" />
        </mxCell>
        <mxCell id="fimtvKSlJ7NghBmaBBVM-30" value="Name" style="ellipse;whiteSpace=wrap;html=1;align=center;" vertex="1" parent="1">
          <mxGeometry x="770" y="660" width="60" height="40" as="geometry" />
        </mxCell>
        <mxCell id="fimtvKSlJ7NghBmaBBVM-33" style="edgeStyle=orthogonalEdgeStyle;rounded=0;orthogonalLoop=1;jettySize=auto;html=1;exitX=0;exitY=1;exitDx=0;exitDy=0;entryX=1;entryY=0.25;entryDx=0;entryDy=0;endArrow=none;endFill=0;" edge="1" parent="1" source="fimtvKSlJ7NghBmaBBVM-31" target="D_2TPNSe9pJ0Xu-pH0Qq-111">
          <mxGeometry relative="1" as="geometry">
            <Array as="points">
              <mxPoint x="704" y="680" />
              <mxPoint x="690" y="680" />
              <mxPoint x="690" y="710" />
            </Array>
          </mxGeometry>
        </mxCell>
        <mxCell id="fimtvKSlJ7NghBmaBBVM-31" value="Role" style="ellipse;whiteSpace=wrap;html=1;align=center;" vertex="1" parent="1">
          <mxGeometry x="695" y="660" width="60" height="40" as="geometry" />
        </mxCell>
        <mxCell id="fimtvKSlJ7NghBmaBBVM-35" style="edgeStyle=orthogonalEdgeStyle;rounded=0;orthogonalLoop=1;jettySize=auto;html=1;exitX=0;exitY=0.5;exitDx=0;exitDy=0;entryX=1;entryY=0.75;entryDx=0;entryDy=0;endArrow=none;endFill=0;" edge="1" parent="1" source="fimtvKSlJ7NghBmaBBVM-32" target="D_2TPNSe9pJ0Xu-pH0Qq-111">
          <mxGeometry relative="1" as="geometry">
            <Array as="points">
              <mxPoint x="760" y="730" />
            </Array>
          </mxGeometry>
        </mxCell>
        <mxCell id="fimtvKSlJ7NghBmaBBVM-32" value="Assigned Department" style="ellipse;whiteSpace=wrap;html=1;align=center;" vertex="1" parent="1">
          <mxGeometry x="770" y="710" width="70" height="40" as="geometry" />
        </mxCell>
        <mxCell id="fimtvKSlJ7NghBmaBBVM-34" style="edgeStyle=orthogonalEdgeStyle;rounded=0;orthogonalLoop=1;jettySize=auto;html=1;exitX=0;exitY=1;exitDx=0;exitDy=0;entryX=1;entryY=0.5;entryDx=0;entryDy=0;endArrow=none;endFill=0;" edge="1" parent="1" source="fimtvKSlJ7NghBmaBBVM-30" target="D_2TPNSe9pJ0Xu-pH0Qq-111">
          <mxGeometry relative="1" as="geometry">
            <Array as="points">
              <mxPoint x="760" y="694" />
              <mxPoint x="760" y="720" />
            </Array>
          </mxGeometry>
        </mxCell>
        <mxCell id="fimtvKSlJ7NghBmaBBVM-38" style="edgeStyle=orthogonalEdgeStyle;rounded=0;orthogonalLoop=1;jettySize=auto;html=1;entryX=0;entryY=0;entryDx=0;entryDy=0;endArrow=none;endFill=0;" edge="1" parent="1" source="fimtvKSlJ7NghBmaBBVM-37" target="D_2TPNSe9pJ0Xu-pH0Qq-108">
          <mxGeometry relative="1" as="geometry">
            <Array as="points">
              <mxPoint x="380" y="710" />
              <mxPoint x="380" y="710" />
            </Array>
          </mxGeometry>
        </mxCell>
        <mxCell id="fimtvKSlJ7NghBmaBBVM-37" value="Name" style="ellipse;whiteSpace=wrap;html=1;align=center;" vertex="1" parent="1">
          <mxGeometry x="320" y="680" width="70" height="40" as="geometry" />
        </mxCell>
      </root>
    </mxGraphModel>
  </diagram>
</mxfile>
